# xmcd CD database file
#
# Track frame offsets:
#	150
#	17347
#	34092
#	52853
#	71093
#	89221
#	110066
#	127183
#	145307
#	171419
#	195152
#	216681
#	230818
#	246456
#	262764
#	282308
#	301676
#
# Disc length: 4337 seconds
#
# Revision: 0
# Processed by: cddbd v1.5.2PL0 Copyright (c) Steve Scherf et al.
# Submitted via: CDex 1.79
#
DISCID=0410ef11
DTITLE=Adele - 21
DYEAR=2011
DGENRE=Blues
TTITLE0=Rolling In The Deep
TTITLE1=Rumor Has It
TTITLE2=Turning Tables
TTITLE3=Don't You Remember
TTITLE4=Set Fire To The Rain
TTITLE5=He Won't Go
TTITLE6=Take It All
TTITLE7=I'll Be Waiting
TTITLE8=One And Only
TTITLE9=Lovesong
TTITLE10=Someone Like You
TTITLE11=If It Hadn't Been For Love
TTITLE12=Hiding My Heart
TTITLE13=I Found A Boy
TTITLE14=Turning Tables (Live Acoustic)
TTITLE15=Don't You Remember (Live Acoustic)
TTITLE16=Someone Like You (Live Acoustic)
EXTD=YEAR: 2011
EXTT0=
EXTT1=
EXTT2=
EXTT3=
EXTT4=
EXTT5=
EXTT6=
EXTT7=
EXTT8=
EXTT9=
EXTT10=
EXTT11=
EXTT12=
EXTT13=
EXTT14=
EXTT15=
EXTT16=
PLAYORDER=
